<?xml version="1.0" standalone="no"?><!DOCTYPE svg PUBLIC "-//W3C//DTD SVG 1.1//EN" "http://www.w3.org/Graphics/SVG/1.1/DTD/svg11.dtd"><svg t="1499412106594" class="icon" style="" viewBox="0 0 1024 1024" version="1.1" xmlns="http://www.w3.org/2000/svg" p-id="3566" xmlns:xlink="http://www.w3.org/1999/xlink" width="200" height="200"><defs><style type="text/css"></style></defs><path d="M785.8 539.48q21.77 16.73 30.65 40.22a116.32 116.32 0 0 1 7.26 49 174 174 0 0 1-11.29 51 191.42 191.42 0 0 1-25 46.2 306.47 306.47 0 0 1-62.1 63.72 405.57 405.57 0 0 1-71.78 43.81 437.31 437.31 0 0 1-74.6 27.48 624 624 0 0 1-70.57 14.74q-33.07 4.78-59.28 6t-40.73 1.2q-14.52 0-38.71-2a463 463 0 0 1-53.63-8 527.37 527.37 0 0 1-61.7-16.73 348.79 348.79 0 0 1-62.91-28.27 326.6 326.6 0 0 1-58.47-43q-27.82-25.49-47.18-61.33a152.54 152.54 0 0 1-17.34-49.38Q64 647.8 64 607.18q0-17.52 6-39.82T91.42 518q15.32-27.08 41.94-58.94t67.74-70.09a687 687 0 0 1 83.47-66.51 366.61 366.61 0 0 1 92.34-45q22.58-8 50-8.76t45.16 8.76q8.06 8.76 15.32 17.92t9.68 22.7a52.86 52.86 0 0 1 0.4 21.5q-2 10.35-4.44 20.71t-4 19.91a31.77 31.77 0 0 0 1.61 17.52 80.93 80.93 0 0 0 26.61-1.2 193.08 193.08 0 0 0 25-7.17q12.1-4.38 24.6-9.16a141 141 0 0 1 26.2-7.19 216.88 216.88 0 0 1 43.15-3.59 134.34 134.34 0 0 1 38.71 6q17.34 5.58 28.63 17.12t13.71 29.87a44.18 44.18 0 0 1-1.61 20.71q-3.23 9.56-6.86 17.92a98.33 98.33 0 0 0-5.65 17.12 33.16 33.16 0 0 0 1.21 18.32q2.42 5.53 11.66 10.35t21.37 9.56q12.1 4.78 25.4 10.35a109.66 109.66 0 0 1 23 12.74z m-203.23 247.7q21-12.74 42.34-35a193.34 193.34 0 0 0 34.68-49.78 151.62 151.62 0 0 0 14.92-58.94q1.61-31.46-16.13-63.32a165 165 0 0 0-37.5-44.6 181.19 181.19 0 0 0-49.6-29.07 273.68 273.68 0 0 0-58.47-15.53 415.61 415.61 0 0 0-63.31-4.78q-62.1 0-110.08 12.74t-83.07 33.45q-35.08 20.71-56.86 47t-30.65 53.36a112.39 112.39 0 0 0-5.24 52.17 139.3 139.3 0 0 0 16.53 49 159.31 159.31 0 0 0 33.47 41.42 175.75 175.75 0 0 0 45.57 29.47 322.27 322.27 0 0 0 94 25.09 422.62 422.62 0 0 0 91.54 0.4q43.55-4.78 79.44-16.73t58.47-26.28zM476.92 535.5a269.4 269.4 0 0 1 30.65 14.34 89.65 89.65 0 0 1 25.81 21.5 92.62 92.62 0 0 1 14.11 23.89A126.09 126.09 0 0 1 556 625.9a150.6 150.6 0 0 1 1.21 33.05 83.8 83.8 0 0 1-7.66 30.27 238.33 238.33 0 0 1-15.73 29.07 142 142 0 0 1-54.44 50.18q-18.55 10-45.16 14.74-48.39 8.76-92.75-8.76a139.67 139.67 0 0 1-69.36-58.14q-9.68-31.06-10.48-55t12.9-51.77q10.48-21.5 31.86-40.22a177 177 0 0 1 49.2-30.27 183.8 183.8 0 0 1 59.28-13.54 144.1 144.1 0 0 1 62.1 10zM348.69 731.43q29.84 2.39 45.56-14.34t16.94-37.43a52 52 0 0 0-12.1-37q-13.31-16.33-41.53-13.14-21.77 2.39-33.87 18.32T310 681.65a52.64 52.64 0 0 0 7.66 33.05q9.28 15.13 31.05 16.73z m329.85-590.19q58.87 0 110.08 15.53t89.52 45a212.33 212.33 0 0 1 60.08 71.68Q960 315.67 960 369q0 26.28-12.9 39.43T919.27 422q-14.92 0.4-27.82-11.15t-12.9-35.44q0-31.86-17.74-60.53T814 264.69q-29-21.5-66.53-33.85a242.29 242.29 0 0 0-76.21-12.35q-25 0-37.1-11.95t-11.29-26.68q0.81-14.73 14.92-26.68t40.73-11.95z m0 127.44q75 0 113.71 37.83T831 420.81q0 23.89-8.06 33.85t-17.74 8.76q-9.68-1.19-17.74-11.55T779.35 424q0-47-27.42-74.87t-73.39-27.88q-15.32 0-22.58-8.36T648.7 295q0-9.56 7.66-17.92t22.18-8.36z" p-id="3567" fill="#d81e06"></path></svg>